<svg xmlns="http://www.w3.org/2000/svg" width="141" height="27" fill="none"><path d="M10.517 3.296c-.792.044-1.375.132-1.75.264-.352.132-.594.385-.726.76s-.198.98-.198 1.815v16.764c0 .704.055 1.22.165 1.55.1.308.297.517.56.627.286.1.737.165 1.353.165h1.617c1.496 0 2.783-.67 3.86-2.013 1.1-1.342 1.815-3.124 2.145-5.346h.76c-.066.748-.1 1.716-.1 2.904l.23 5.214-7.557-.1L.122 26v-.66c.726-.044 1.254-.132 1.584-.264.352-.132.583-.385.693-.76.132-.374.198-.98.198-1.815V6.134c0-.836-.066-1.44-.198-1.815-.1-.374-.34-.627-.693-.76-.33-.132-.858-.22-1.584-.264v-.66l5.214.1 5.18-.1v.66zm13.74-2.87c.924 0 1.65.23 2.178.693.55.44.825 1.056.825 1.848s-.275 1.42-.825 1.88c-.528.44-1.254.66-2.178.66s-1.66-.22-2.21-.66c-.528-.462-.792-1.09-.792-1.88s.264-1.408.792-1.848c.55-.462 1.287-.693 2.21-.693zM26.83 22.93c0 .902.154 1.53.462 1.88.33.33.88.495 1.65.495V26l-4.39-.132-4.587.132v-.693c.792 0 1.342-.165 1.65-.495.308-.352.462-.98.462-1.88V12.536c0-1.012-.154-1.75-.462-2.21s-.858-.693-1.65-.693V8.94a21.93 21.93 0 0 0 2.046.099c1.958 0 3.564-.154 4.818-.462V22.93zM41.694 8.477c1.782 0 3.223.737 4.323 2.21 1.1 1.452 1.65 3.564 1.65 6.336 0 3.234-.704 5.62-2.112 7.16-1.408 1.518-3.223 2.277-5.445 2.277-1.518 0-2.75-.385-3.696-1.155a6.28 6.28 0 0 0-2.376.264c-.792.242-1.42.56-1.88.957l-.495-.297c.154-.55.23-1.166.23-1.848V4.154c0-1.012-.165-1.75-.495-2.21-.308-.462-.847-.693-1.617-.693V.557a21.23 21.23 0 0 0 2.046.099c1.914 0 3.52-.154 4.818-.462v11.418c.462-1.012 1.133-1.782 2.013-2.3.88-.55 1.892-.825 3.036-.825zM39.087 25.77c1.2 0 2.112-.682 2.706-2.046s.89-3.443.89-6.237c0-2.706-.253-4.642-.76-5.808-.506-1.188-1.232-1.782-2.178-1.782-.704 0-1.353.264-1.947.792-.572.506-.957 1.2-1.155 2.08v12.11c.726.594 1.54.89 2.442.89z" fill="#5524DF"/><path d="M78.52 2.735l2.54-.1v.66c-.55.22-1.09.65-1.617 1.287-.506.616-.935 1.496-1.287 2.64L72.35 26.066c-.242-.022-.627-.033-1.155-.033l-1.155.033-4.85-14.718-4.884 14.718c-.242-.022-.627-.033-1.155-.033l-1.155.033-7.392-20.658c-.264-.726-.583-1.254-.957-1.584s-.748-.506-1.122-.528v-.66l4.917.1 4.06-.1v.66c-.77.1-1.155.54-1.155 1.287 0 .352.1.847.297 1.485l4.818 13.96 3.333-9.834-1.683-5.115c-.22-.638-.484-1.078-.792-1.32-.286-.264-.627-.418-1.023-.462v-.66l4.72.1 4.752-.1v.66c-.792.022-1.364.12-1.716.297-.352.154-.528.462-.528.924 0 .396.1.913.33 1.55l4.52 13.794 3.135-9.966c.506-1.65.76-2.926.76-3.828 0-.946-.242-1.628-.726-2.046-.462-.44-1.166-.682-2.112-.726v-.66l4.092.1zm9.32 5.742c2.53 0 4.5.726 5.94 2.178 1.43 1.43 2.145 3.707 2.145 6.83s-.715 5.4-2.145 6.83-3.4 2.145-5.94 2.145c-2.508 0-4.488-.715-5.94-2.145-1.43-1.43-2.145-3.707-2.145-6.83s.715-5.4 2.145-6.83c1.452-1.452 3.432-2.178 5.94-2.178zm0 .66c-.946 0-1.705.693-2.277 2.08-.55 1.364-.825 3.454-.825 6.27s.275 4.906.825 6.27c.572 1.364 1.33 2.046 2.277 2.046.968 0 1.727-.67 2.277-2.013.55-1.364.825-3.465.825-6.303s-.286-4.94-.858-6.303c-.55-1.364-1.298-2.046-2.244-2.046zm21.497-.66c1 0 1.738.297 2.244.89s.76 1.31.76 2.145c0 .814-.242 1.485-.726 2.013-.462.506-1.078.76-1.848.76-.748 0-1.342-.187-1.782-.56-.44-.396-.66-.913-.66-1.55 0-1.056.484-1.914 1.452-2.574a1.76 1.76 0 0 0-.396-.033c-.22 0-.396.022-.528.066-.836.132-1.55.638-2.145 1.518-.572.88-.858 1.782-.858 2.706V22.6c0 1.012.242 1.716.726 2.112.506.396 1.298.594 2.376.594V26c-.308 0-.56-.01-.76-.033l-4.488-.1-4.06.1c-.176.022-.396.033-.66.033v-.693c.792 0 1.342-.165 1.65-.495.308-.352.462-.98.462-1.88V12.536c0-1.012-.154-1.75-.462-2.21s-.858-.693-1.65-.693V8.94l2.046.1c1.958 0 3.564-.154 4.818-.462v3.07c.418-.946 1.023-1.705 1.815-2.277.792-.594 1.683-.89 2.673-.89zm9.915 14.454c0 .902.154 1.53.462 1.88.308.33.858.495 1.65.495V26l-4.422-.132-4.554.132v-.693c.77 0 1.31-.165 1.617-.495.33-.352.495-.98.495-1.88V4.12c0-1.012-.165-1.75-.495-2.21-.308-.462-.847-.693-1.617-.693V.524l2.046.1c1.914 0 3.52-.154 4.818-.462v22.77zm19.43-.56c0 1.012.154 1.75.462 2.21s.858.693 1.65.693v.693l-2.046-.1c-1.958 0-3.564.154-4.818.462v-2.838c-.748 1.98-2.178 2.97-4.3 2.97-2.068 0-3.718-.748-4.95-2.244-1.2-1.518-1.804-3.795-1.782-6.83 0-1.936.308-3.564.924-4.884.638-1.342 1.507-2.343 2.607-3.003 1.122-.682 2.398-1.023 3.828-1.023 1.606 0 2.827.418 3.663 1.254v-5.6c0-1.012-.165-1.75-.495-2.21-.308-.462-.847-.693-1.617-.693V.524l2.046.1c1.914 0 3.52-.154 4.818-.462v22.21zm-7.69 2.673c.726 0 1.364-.264 1.914-.792.572-.528.913-1.243 1.023-2.145v-11.55c-.55-.748-1.353-1.122-2.41-1.122-1.166 0-2.068.67-2.706 2.013s-.946 3.344-.924 6.006c-.022 2.684.23 4.62.76 5.808.55 1.188 1.33 1.782 2.343 1.782z" fill="#2e2e2e"/></svg>